# xmcd
#
# Track frame offsets:
#	150
#	21375
#	36105
#	67765
#	95848
#	114903
#	137696
#	159710
#	179228
#	203276
#	223524
#	244117
#	271310
#	287358
#	312371
#
# Disc length: 4309
#
# Revision: 1
# Processed by: cddbd v1.5.1PL0 Copyright (c) Steve Scherf et al.
# Submitted via: CDex 1.50Beta3
# Normalized: r0:TDELIM( - )
#
DISCID=d510d30f
DTITLE=Blues Planet - The Best Of Evening Music
DYEAR=1900
DGENRE=Blues
TTITLE0=Otis Rush - Little Red Rooster
TTITLE1=Peter Green - Apostle
TTITLE2=Albert Collins - Lights Are On But Nobody's Home
TTITLE3=Tinsley Ellis - Early In The Morning
TTITLE4=Clarence Brown - Better Off With The Blues
TTITLE5=Lonnie Mack - Falling Back In Love With You
TTITLE6=Ronnie Earl - Through Floods And Storms
TTITLE7=John Campbell - Angel Of Sorrow
TTITLE8=Koko Taylor - I Cried Like A Baby
TTITLE9=Junior Wells - Don't You Lie To Me
TTITLE10=C. J. Chenier - Richest Man
TTITLE11=Luther Allison - Just Memories
TTITLE12=Jimmy Rushing - Did You Ever
TTITLE13=King B.B. - Thrill Is Gone
TTITLE14=John Lee Hooker - No Shoes
EXTD=
EXTT0=
EXTT1=
EXTT2=
EXTT3=
EXTT4=
EXTT5=
EXTT6=
EXTT7=
EXTT8=
EXTT9=
EXTT10=
EXTT11=
EXTT12=
EXTT13=
EXTT14=
PLAYORDER=
